<svg xmlns="http://www.w3.org/2000/svg" xmlns:xlink="http://www.w3.org/1999/xlink" width="512" height="512" viewBox="0 0 512 512">
  <defs>
    <clipPath id="canvas-clip">
      <rect width="512" height="512" rx="112" ry="112"/>
    </clipPath>
  </defs>
  <rect width="512" height="512" rx="112" ry="112" fill="#DF001E"  clip-path="url(#canvas-clip)"/>
  <g clip-path="url(#canvas-clip)">
    <g transform="rotate(0, 256, 256)">
      <g transform="translate(69 64) scale(16 16) translate(0 0)"><g fill="none" stroke="#FFF7F7" stroke-linecap="round" stroke-linejoin="round" stroke-width="2"><path d="M11 21.73a2 2 0 0 0 2 0l7-4A2 2 0 0 0 21 16V8a2 2 0 0 0-1-1.73l-7-4a2 2 0 0 0-2 0l-7 4A2 2 0 0 0 3 8v8a2 2 0 0 0 1 1.73zm1 .27V12"/><path d="M3.29 7L12 12l8.71-5M7.5 4.27l9 5.15"/></g></g><g transform="translate(68 66) scale(16 16) translate(0 0)"><g fill="none" stroke="#FFF7F7" stroke-linecap="round" stroke-linejoin="round" stroke-width="2"><path d="M11 21.73a2 2 0 0 0 2 0l7-4A2 2 0 0 0 21 16V8a2 2 0 0 0-1-1.73l-7-4a2 2 0 0 0-2 0l-7 4A2 2 0 0 0 3 8v8a2 2 0 0 0 1 1.73zm1 .27V12"/><path d="M3.29 7L12 12l8.71-5M7.5 4.27l9 5.15"/></g></g><g transform="translate(67 68) scale(16 16) translate(0 0)"><g fill="none" stroke="#FFF7F7" stroke-linecap="round" stroke-linejoin="round" stroke-width="2"><path d="M11 21.73a2 2 0 0 0 2 0l7-4A2 2 0 0 0 21 16V8a2 2 0 0 0-1-1.73l-7-4a2 2 0 0 0-2 0l-7 4A2 2 0 0 0 3 8v8a2 2 0 0 0 1 1.73zm1 .27V12"/><path d="M3.29 7L12 12l8.71-5M7.5 4.27l9 5.15"/></g></g><g transform="translate(64 69) scale(16 16) translate(0 0)"><g fill="none" stroke="#FFF7F7" stroke-linecap="round" stroke-linejoin="round" stroke-width="2"><path d="M11 21.73a2 2 0 0 0 2 0l7-4A2 2 0 0 0 21 16V8a2 2 0 0 0-1-1.73l-7-4a2 2 0 0 0-2 0l-7 4A2 2 0 0 0 3 8v8a2 2 0 0 0 1 1.73zm1 .27V12"/><path d="M3.29 7L12 12l8.71-5M7.5 4.27l9 5.15"/></g></g><g transform="translate(62 68) scale(16 16) translate(0 0)"><g fill="none" stroke="#FFF7F7" stroke-linecap="round" stroke-linejoin="round" stroke-width="2"><path d="M11 21.73a2 2 0 0 0 2 0l7-4A2 2 0 0 0 21 16V8a2 2 0 0 0-1-1.73l-7-4a2 2 0 0 0-2 0l-7 4A2 2 0 0 0 3 8v8a2 2 0 0 0 1 1.73zm1 .27V12"/><path d="M3.29 7L12 12l8.71-5M7.5 4.27l9 5.15"/></g></g><g transform="translate(60 66) scale(16 16) translate(0 0)"><g fill="none" stroke="#FFF7F7" stroke-linecap="round" stroke-linejoin="round" stroke-width="2"><path d="M11 21.73a2 2 0 0 0 2 0l7-4A2 2 0 0 0 21 16V8a2 2 0 0 0-1-1.73l-7-4a2 2 0 0 0-2 0l-7 4A2 2 0 0 0 3 8v8a2 2 0 0 0 1 1.73zm1 .27V12"/><path d="M3.29 7L12 12l8.71-5M7.5 4.27l9 5.15"/></g></g><g transform="translate(59 64) scale(16 16) translate(0 0)"><g fill="none" stroke="#FFF7F7" stroke-linecap="round" stroke-linejoin="round" stroke-width="2"><path d="M11 21.73a2 2 0 0 0 2 0l7-4A2 2 0 0 0 21 16V8a2 2 0 0 0-1-1.73l-7-4a2 2 0 0 0-2 0l-7 4A2 2 0 0 0 3 8v8a2 2 0 0 0 1 1.73zm1 .27V12"/><path d="M3.29 7L12 12l8.71-5M7.5 4.27l9 5.15"/></g></g><g transform="translate(60 61) scale(16 16) translate(0 0)"><g fill="none" stroke="#FFF7F7" stroke-linecap="round" stroke-linejoin="round" stroke-width="2"><path d="M11 21.73a2 2 0 0 0 2 0l7-4A2 2 0 0 0 21 16V8a2 2 0 0 0-1-1.73l-7-4a2 2 0 0 0-2 0l-7 4A2 2 0 0 0 3 8v8a2 2 0 0 0 1 1.73zm1 .27V12"/><path d="M3.29 7L12 12l8.71-5M7.5 4.27l9 5.15"/></g></g><g transform="translate(61 60) scale(16 16) translate(0 0)"><g fill="none" stroke="#FFF7F7" stroke-linecap="round" stroke-linejoin="round" stroke-width="2"><path d="M11 21.73a2 2 0 0 0 2 0l7-4A2 2 0 0 0 21 16V8a2 2 0 0 0-1-1.73l-7-4a2 2 0 0 0-2 0l-7 4A2 2 0 0 0 3 8v8a2 2 0 0 0 1 1.73zm1 .27V12"/><path d="M3.29 7L12 12l8.71-5M7.5 4.27l9 5.15"/></g></g><g transform="translate(64 59) scale(16 16) translate(0 0)"><g fill="none" stroke="#FFF7F7" stroke-linecap="round" stroke-linejoin="round" stroke-width="2"><path d="M11 21.73a2 2 0 0 0 2 0l7-4A2 2 0 0 0 21 16V8a2 2 0 0 0-1-1.73l-7-4a2 2 0 0 0-2 0l-7 4A2 2 0 0 0 3 8v8a2 2 0 0 0 1 1.73zm1 .27V12"/><path d="M3.29 7L12 12l8.71-5M7.5 4.27l9 5.15"/></g></g><g transform="translate(67 60) scale(16 16) translate(0 0)"><g fill="none" stroke="#FFF7F7" stroke-linecap="round" stroke-linejoin="round" stroke-width="2"><path d="M11 21.73a2 2 0 0 0 2 0l7-4A2 2 0 0 0 21 16V8a2 2 0 0 0-1-1.73l-7-4a2 2 0 0 0-2 0l-7 4A2 2 0 0 0 3 8v8a2 2 0 0 0 1 1.73zm1 .27V12"/><path d="M3.29 7L12 12l8.71-5M7.5 4.27l9 5.15"/></g></g><g transform="translate(68 61) scale(16 16) translate(0 0)"><g fill="none" stroke="#FFF7F7" stroke-linecap="round" stroke-linejoin="round" stroke-width="2"><path d="M11 21.73a2 2 0 0 0 2 0l7-4A2 2 0 0 0 21 16V8a2 2 0 0 0-1-1.73l-7-4a2 2 0 0 0-2 0l-7 4A2 2 0 0 0 3 8v8a2 2 0 0 0 1 1.73zm1 .27V12"/><path d="M3.29 7L12 12l8.71-5M7.5 4.27l9 5.15"/></g></g><g transform="translate(67 64) scale(16 16) translate(0 0)"><g fill="none" stroke="#FFF7F7" stroke-linecap="round" stroke-linejoin="round" stroke-width="2"><path d="M11 21.73a2 2 0 0 0 2 0l7-4A2 2 0 0 0 21 16V8a2 2 0 0 0-1-1.73l-7-4a2 2 0 0 0-2 0l-7 4A2 2 0 0 0 3 8v8a2 2 0 0 0 1 1.73zm1 .27V12"/><path d="M3.29 7L12 12l8.71-5M7.5 4.27l9 5.15"/></g></g><g transform="translate(67 65) scale(16 16) translate(0 0)"><g fill="none" stroke="#FFF7F7" stroke-linecap="round" stroke-linejoin="round" stroke-width="2"><path d="M11 21.73a2 2 0 0 0 2 0l7-4A2 2 0 0 0 21 16V8a2 2 0 0 0-1-1.73l-7-4a2 2 0 0 0-2 0l-7 4A2 2 0 0 0 3 8v8a2 2 0 0 0 1 1.73zm1 .27V12"/><path d="M3.29 7L12 12l8.71-5M7.5 4.27l9 5.15"/></g></g><g transform="translate(66 67) scale(16 16) translate(0 0)"><g fill="none" stroke="#FFF7F7" stroke-linecap="round" stroke-linejoin="round" stroke-width="2"><path d="M11 21.73a2 2 0 0 0 2 0l7-4A2 2 0 0 0 21 16V8a2 2 0 0 0-1-1.73l-7-4a2 2 0 0 0-2 0l-7 4A2 2 0 0 0 3 8v8a2 2 0 0 0 1 1.73zm1 .27V12"/><path d="M3.29 7L12 12l8.71-5M7.5 4.27l9 5.15"/></g></g><g transform="translate(64 67) scale(16 16) translate(0 0)"><g fill="none" stroke="#FFF7F7" stroke-linecap="round" stroke-linejoin="round" stroke-width="2"><path d="M11 21.73a2 2 0 0 0 2 0l7-4A2 2 0 0 0 21 16V8a2 2 0 0 0-1-1.73l-7-4a2 2 0 0 0-2 0l-7 4A2 2 0 0 0 3 8v8a2 2 0 0 0 1 1.73zm1 .27V12"/><path d="M3.29 7L12 12l8.71-5M7.5 4.27l9 5.15"/></g></g><g transform="translate(63 67) scale(16 16) translate(0 0)"><g fill="none" stroke="#FFF7F7" stroke-linecap="round" stroke-linejoin="round" stroke-width="2"><path d="M11 21.73a2 2 0 0 0 2 0l7-4A2 2 0 0 0 21 16V8a2 2 0 0 0-1-1.73l-7-4a2 2 0 0 0-2 0l-7 4A2 2 0 0 0 3 8v8a2 2 0 0 0 1 1.73zm1 .27V12"/><path d="M3.29 7L12 12l8.71-5M7.5 4.27l9 5.15"/></g></g><g transform="translate(61 65) scale(16 16) translate(0 0)"><g fill="none" stroke="#FFF7F7" stroke-linecap="round" stroke-linejoin="round" stroke-width="2"><path d="M11 21.73a2 2 0 0 0 2 0l7-4A2 2 0 0 0 21 16V8a2 2 0 0 0-1-1.73l-7-4a2 2 0 0 0-2 0l-7 4A2 2 0 0 0 3 8v8a2 2 0 0 0 1 1.73zm1 .27V12"/><path d="M3.29 7L12 12l8.71-5M7.5 4.27l9 5.15"/></g></g><g transform="translate(61 64) scale(16 16) translate(0 0)"><g fill="none" stroke="#FFF7F7" stroke-linecap="round" stroke-linejoin="round" stroke-width="2"><path d="M11 21.73a2 2 0 0 0 2 0l7-4A2 2 0 0 0 21 16V8a2 2 0 0 0-1-1.73l-7-4a2 2 0 0 0-2 0l-7 4A2 2 0 0 0 3 8v8a2 2 0 0 0 1 1.73zm1 .27V12"/><path d="M3.29 7L12 12l8.71-5M7.5 4.27l9 5.15"/></g></g><g transform="translate(61 62) scale(16 16) translate(0 0)"><g fill="none" stroke="#FFF7F7" stroke-linecap="round" stroke-linejoin="round" stroke-width="2"><path d="M11 21.73a2 2 0 0 0 2 0l7-4A2 2 0 0 0 21 16V8a2 2 0 0 0-1-1.73l-7-4a2 2 0 0 0-2 0l-7 4A2 2 0 0 0 3 8v8a2 2 0 0 0 1 1.73zm1 .27V12"/><path d="M3.29 7L12 12l8.71-5M7.5 4.27l9 5.15"/></g></g><g transform="translate(62 61) scale(16 16) translate(0 0)"><g fill="none" stroke="#FFF7F7" stroke-linecap="round" stroke-linejoin="round" stroke-width="2"><path d="M11 21.73a2 2 0 0 0 2 0l7-4A2 2 0 0 0 21 16V8a2 2 0 0 0-1-1.73l-7-4a2 2 0 0 0-2 0l-7 4A2 2 0 0 0 3 8v8a2 2 0 0 0 1 1.73zm1 .27V12"/><path d="M3.29 7L12 12l8.71-5M7.5 4.27l9 5.15"/></g></g><g transform="translate(64 61) scale(16 16) translate(0 0)"><g fill="none" stroke="#FFF7F7" stroke-linecap="round" stroke-linejoin="round" stroke-width="2"><path d="M11 21.73a2 2 0 0 0 2 0l7-4A2 2 0 0 0 21 16V8a2 2 0 0 0-1-1.73l-7-4a2 2 0 0 0-2 0l-7 4A2 2 0 0 0 3 8v8a2 2 0 0 0 1 1.73zm1 .27V12"/><path d="M3.29 7L12 12l8.71-5M7.5 4.27l9 5.15"/></g></g><g transform="translate(66 61) scale(16 16) translate(0 0)"><g fill="none" stroke="#FFF7F7" stroke-linecap="round" stroke-linejoin="round" stroke-width="2"><path d="M11 21.73a2 2 0 0 0 2 0l7-4A2 2 0 0 0 21 16V8a2 2 0 0 0-1-1.73l-7-4a2 2 0 0 0-2 0l-7 4A2 2 0 0 0 3 8v8a2 2 0 0 0 1 1.73zm1 .27V12"/><path d="M3.29 7L12 12l8.71-5M7.5 4.27l9 5.15"/></g></g><g transform="translate(67 62) scale(16 16) translate(0 0)"><g fill="none" stroke="#FFF7F7" stroke-linecap="round" stroke-linejoin="round" stroke-width="2"><path d="M11 21.73a2 2 0 0 0 2 0l7-4A2 2 0 0 0 21 16V8a2 2 0 0 0-1-1.73l-7-4a2 2 0 0 0-2 0l-7 4A2 2 0 0 0 3 8v8a2 2 0 0 0 1 1.73zm1 .27V12"/><path d="M3.29 7L12 12l8.71-5M7.5 4.27l9 5.15"/></g></g><g transform="translate(66 64) scale(16 16) translate(0 0)"><g fill="none" stroke="#FFF7F7" stroke-linecap="round" stroke-linejoin="round" stroke-width="2"><path d="M11 21.73a2 2 0 0 0 2 0l7-4A2 2 0 0 0 21 16V8a2 2 0 0 0-1-1.73l-7-4a2 2 0 0 0-2 0l-7 4A2 2 0 0 0 3 8v8a2 2 0 0 0 1 1.73zm1 .27V12"/><path d="M3.29 7L12 12l8.71-5M7.5 4.27l9 5.15"/></g></g><g transform="translate(66 65) scale(16 16) translate(0 0)"><g fill="none" stroke="#FFF7F7" stroke-linecap="round" stroke-linejoin="round" stroke-width="2"><path d="M11 21.73a2 2 0 0 0 2 0l7-4A2 2 0 0 0 21 16V8a2 2 0 0 0-1-1.73l-7-4a2 2 0 0 0-2 0l-7 4A2 2 0 0 0 3 8v8a2 2 0 0 0 1 1.73zm1 .27V12"/><path d="M3.29 7L12 12l8.71-5M7.5 4.27l9 5.15"/></g></g><g transform="translate(65 66) scale(16 16) translate(0 0)"><g fill="none" stroke="#FFF7F7" stroke-linecap="round" stroke-linejoin="round" stroke-width="2"><path d="M11 21.73a2 2 0 0 0 2 0l7-4A2 2 0 0 0 21 16V8a2 2 0 0 0-1-1.73l-7-4a2 2 0 0 0-2 0l-7 4A2 2 0 0 0 3 8v8a2 2 0 0 0 1 1.73zm1 .27V12"/><path d="M3.29 7L12 12l8.71-5M7.5 4.27l9 5.15"/></g></g><g transform="translate(64 66) scale(16 16) translate(0 0)"><g fill="none" stroke="#FFF7F7" stroke-linecap="round" stroke-linejoin="round" stroke-width="2"><path d="M11 21.73a2 2 0 0 0 2 0l7-4A2 2 0 0 0 21 16V8a2 2 0 0 0-1-1.73l-7-4a2 2 0 0 0-2 0l-7 4A2 2 0 0 0 3 8v8a2 2 0 0 0 1 1.73zm1 .27V12"/><path d="M3.29 7L12 12l8.71-5M7.5 4.27l9 5.15"/></g></g><g transform="translate(63 66) scale(16 16) translate(0 0)"><g fill="none" stroke="#FFF7F7" stroke-linecap="round" stroke-linejoin="round" stroke-width="2"><path d="M11 21.73a2 2 0 0 0 2 0l7-4A2 2 0 0 0 21 16V8a2 2 0 0 0-1-1.73l-7-4a2 2 0 0 0-2 0l-7 4A2 2 0 0 0 3 8v8a2 2 0 0 0 1 1.73zm1 .27V12"/><path d="M3.29 7L12 12l8.71-5M7.5 4.27l9 5.15"/></g></g><g transform="translate(62 65) scale(16 16) translate(0 0)"><g fill="none" stroke="#FFF7F7" stroke-linecap="round" stroke-linejoin="round" stroke-width="2"><path d="M11 21.73a2 2 0 0 0 2 0l7-4A2 2 0 0 0 21 16V8a2 2 0 0 0-1-1.73l-7-4a2 2 0 0 0-2 0l-7 4A2 2 0 0 0 3 8v8a2 2 0 0 0 1 1.73zm1 .27V12"/><path d="M3.29 7L12 12l8.71-5M7.5 4.27l9 5.15"/></g></g><g transform="translate(62 64) scale(16 16) translate(0 0)"><g fill="none" stroke="#FFF7F7" stroke-linecap="round" stroke-linejoin="round" stroke-width="2"><path d="M11 21.73a2 2 0 0 0 2 0l7-4A2 2 0 0 0 21 16V8a2 2 0 0 0-1-1.73l-7-4a2 2 0 0 0-2 0l-7 4A2 2 0 0 0 3 8v8a2 2 0 0 0 1 1.73zm1 .27V12"/><path d="M3.29 7L12 12l8.71-5M7.5 4.27l9 5.15"/></g></g><g transform="translate(62 63) scale(16 16) translate(0 0)"><g fill="none" stroke="#FFF7F7" stroke-linecap="round" stroke-linejoin="round" stroke-width="2"><path d="M11 21.73a2 2 0 0 0 2 0l7-4A2 2 0 0 0 21 16V8a2 2 0 0 0-1-1.73l-7-4a2 2 0 0 0-2 0l-7 4A2 2 0 0 0 3 8v8a2 2 0 0 0 1 1.73zm1 .27V12"/><path d="M3.29 7L12 12l8.71-5M7.5 4.27l9 5.15"/></g></g><g transform="translate(63 62) scale(16 16) translate(0 0)"><g fill="none" stroke="#FFF7F7" stroke-linecap="round" stroke-linejoin="round" stroke-width="2"><path d="M11 21.73a2 2 0 0 0 2 0l7-4A2 2 0 0 0 21 16V8a2 2 0 0 0-1-1.73l-7-4a2 2 0 0 0-2 0l-7 4A2 2 0 0 0 3 8v8a2 2 0 0 0 1 1.73zm1 .27V12"/><path d="M3.29 7L12 12l8.71-5M7.5 4.27l9 5.15"/></g></g><g transform="translate(64 62) scale(16 16) translate(0 0)"><g fill="none" stroke="#FFF7F7" stroke-linecap="round" stroke-linejoin="round" stroke-width="2"><path d="M11 21.73a2 2 0 0 0 2 0l7-4A2 2 0 0 0 21 16V8a2 2 0 0 0-1-1.73l-7-4a2 2 0 0 0-2 0l-7 4A2 2 0 0 0 3 8v8a2 2 0 0 0 1 1.73zm1 .27V12"/><path d="M3.29 7L12 12l8.71-5M7.5 4.27l9 5.15"/></g></g><g transform="translate(65 62) scale(16 16) translate(0 0)"><g fill="none" stroke="#FFF7F7" stroke-linecap="round" stroke-linejoin="round" stroke-width="2"><path d="M11 21.73a2 2 0 0 0 2 0l7-4A2 2 0 0 0 21 16V8a2 2 0 0 0-1-1.73l-7-4a2 2 0 0 0-2 0l-7 4A2 2 0 0 0 3 8v8a2 2 0 0 0 1 1.73zm1 .27V12"/><path d="M3.29 7L12 12l8.71-5M7.5 4.27l9 5.15"/></g></g><g transform="translate(66 63) scale(16 16) translate(0 0)"><g fill="none" stroke="#FFF7F7" stroke-linecap="round" stroke-linejoin="round" stroke-width="2"><path d="M11 21.73a2 2 0 0 0 2 0l7-4A2 2 0 0 0 21 16V8a2 2 0 0 0-1-1.73l-7-4a2 2 0 0 0-2 0l-7 4A2 2 0 0 0 3 8v8a2 2 0 0 0 1 1.73zm1 .27V12"/><path d="M3.29 7L12 12l8.71-5M7.5 4.27l9 5.15"/></g></g>
      <g transform="translate(64 64) scale(16 16) translate(0 0)"><g fill="none" stroke="#FFFFFF" stroke-linecap="round" stroke-linejoin="round" stroke-width="2"><path d="M11 21.73a2 2 0 0 0 2 0l7-4A2 2 0 0 0 21 16V8a2 2 0 0 0-1-1.73l-7-4a2 2 0 0 0-2 0l-7 4A2 2 0 0 0 3 8v8a2 2 0 0 0 1 1.73zm1 .27V12"/><path d="M3.29 7L12 12l8.71-5M7.5 4.27l9 5.15"/></g></g>
    </g>
  </g>
</svg>